<?xml version="1.0" encoding="iso-8859-1"?>
<!-- Generator: Adobe Illustrator 18.0.0, SVG Export Plug-In . SVG Version: 6.00 Build 0)  -->
<!DOCTYPE svg PUBLIC "-//W3C//DTD SVG 1.1//EN" "http://www.w3.org/Graphics/SVG/1.1/DTD/svg11.dtd">
<svg version="1.1" id="Capa_1" xmlns="http://www.w3.org/2000/svg" xmlns:xlink="http://www.w3.org/1999/xlink" x="0px" y="0px"
	 viewBox="0 0 389.013 389.013" style="enable-background:new 0 0 389.013 389.013;" xml:space="preserve">
<g>
	<path style="fill:#7C6655;" d="M44.866,116c-3.105,0-6.009-1.944-7.085-5.043c-1.358-3.914,0.713-8.187,4.626-9.544L326.181,2.935
		c3.912-1.358,8.186,0.713,9.544,4.626c1.358,3.914-0.713,8.187-4.626,9.544L47.325,115.583C46.511,115.866,45.681,116,44.866,116z"
		/>
	<path style="fill:#51B7A6;" d="M362.001,355.495c0.07,1.08-0.27,2.02-1.01,2.81c-0.74,0.79-1.67,1.19-2.75,1.19H30.781
		c-1.09,0-2.01-0.4-2.75-1.19c-0.74-0.79-1.09-1.73-1.02-2.81l14.09-224.95c0.13-1.98,1.78-3.53,3.76-3.53h299.29
		c1.98,0,3.64,1.55,3.76,3.53L362.001,355.495z M319.591,181.505c0-12.43-10.07-22.5-22.5-22.5c-12.42,0-22.5,10.07-22.5,22.5
		c0,12.42,10.08,22.5,22.5,22.5C309.521,204.005,319.591,193.925,319.591,181.505z M114.421,181.505c0-12.43-10.07-22.5-22.5-22.5
		s-22.5,10.07-22.5,22.5c0,12.42,10.07,22.5,22.5,22.5S114.421,193.925,114.421,181.505z"/>
	<path style="fill:#88C9B3;" d="M39.536,347.494l13.059-208.48h283.824l13.059,208.48H39.536z"/>
	<path style="fill:#E77200;" d="M388.951,353.805c1.11,17.71-12.96,32.69-30.71,32.69H30.781c-17.76,0-31.83-14.98-30.72-32.69
		l14.09-224.95c1.02-16.21,14.47-28.84,30.71-28.84h299.29c16.25,0,29.69,12.63,30.71,28.84L388.951,353.805z M360.991,358.305
		c0.74-0.79,1.08-1.73,1.01-2.81l-14.09-224.95c-0.12-1.98-1.78-3.53-3.76-3.53H44.861c-1.98,0-3.63,1.55-3.76,3.53l-14.09,224.95
		c-0.07,1.08,0.28,2.02,1.02,2.81c0.74,0.79,1.66,1.19,2.75,1.19h327.46C359.321,359.495,360.251,359.095,360.991,358.305z"/>
	<path style="fill:#51B7A6;" d="M91.922,214.005c-17.92,0-32.5-14.58-32.5-32.5s14.58-32.5,32.5-32.5s32.5,14.58,32.5,32.5
		S109.842,214.005,91.922,214.005z"/>
	<path style="fill:#FCF4DE;" d="M91.921,159.005c12.43,0,22.5,10.07,22.5,22.5c0,12.42-10.07,22.5-22.5,22.5s-22.5-10.08-22.5-22.5
		C69.421,169.075,79.491,159.005,91.921,159.005z"/>
	<path style="fill:#51B7A6;" d="M297.092,214.005c-17.92,0-32.5-14.58-32.5-32.5s14.58-32.5,32.5-32.5s32.5,14.58,32.5,32.5
		S315.012,214.005,297.092,214.005z"/>
	<path style="fill:#FCF4DE;" d="M297.091,159.005c12.43,0,22.5,10.07,22.5,22.5c0,12.42-10.07,22.5-22.5,22.5
		c-12.42,0-22.5-10.08-22.5-22.5C274.591,169.075,284.671,159.005,297.091,159.005z"/>
	<g>
		<path style="fill:#7C6655;" d="M223.145,196.007h-57.273c-4.142,0-7.5-3.358-7.5-7.5s3.358-7.5,7.5-7.5h57.273
			c4.142,0,7.5,3.358,7.5,7.5S227.287,196.007,223.145,196.007z"/>
		<path style="fill:#7C6655;" d="M254.305,222.253H134.711c-4.142,0-7.5-3.358-7.5-7.5s3.358-7.5,7.5-7.5h119.594
			c4.142,0,7.5,3.358,7.5,7.5S258.447,222.253,254.305,222.253z"/>
		<path style="fill:#7C6655;" d="M264.899,248.512H124.118c-4.142,0-7.5-3.358-7.5-7.5s3.358-7.5,7.5-7.5h140.781
			c4.142,0,7.5,3.358,7.5,7.5S269.041,248.512,264.899,248.512z"/>
		<path style="fill:#7C6655;" d="M264.899,274.758H124.118c-4.142,0-7.5-3.358-7.5-7.5s3.358-7.5,7.5-7.5h140.781
			c4.142,0,7.5,3.358,7.5,7.5S269.041,274.758,264.899,274.758z"/>
		<path style="fill:#7C6655;" d="M254.305,301.016H134.711c-4.142,0-7.5-3.358-7.5-7.5s3.358-7.5,7.5-7.5h119.594
			c4.142,0,7.5,3.358,7.5,7.5S258.447,301.016,254.305,301.016z"/>
		<path style="fill:#7C6655;" d="M223.157,327.262H165.86c-4.142,0-7.5-3.358-7.5-7.5s3.358-7.5,7.5-7.5h57.297
			c4.142,0,7.5,3.358,7.5,7.5S227.299,327.262,223.157,327.262z"/>
	</g>
</g>
<g>
</g>
<g>
</g>
<g>
</g>
<g>
</g>
<g>
</g>
<g>
</g>
<g>
</g>
<g>
</g>
<g>
</g>
<g>
</g>
<g>
</g>
<g>
</g>
<g>
</g>
<g>
</g>
<g>
</g>
</svg>
