<?xml version="1.0" encoding="utf-8"?>
<!-- Generator: Adobe Illustrator 16.0.0, SVG Export Plug-In . SVG Version: 6.00 Build 0)  -->
<!DOCTYPE svg PUBLIC "-//W3C//DTD SVG 1.1//EN" "http://www.w3.org/Graphics/SVG/1.1/DTD/svg11.dtd">
<svg version="1.1" id="Outlined_2_" xmlns="http://www.w3.org/2000/svg" xmlns:xlink="http://www.w3.org/1999/xlink" x="0px"
	 y="0px" width="32px" height="32px" viewBox="0 0 32 32" enable-background="new 0 0 32 32" xml:space="preserve">
<path fill="#67DDE0" d="M19.5,26.5v-8h2.86l1.333-4H19.5V12c0.006-0.225,0.098-0.5,0.5-0.5h3.5v-4H19c-4.5,0-4.5,2.549-4.5,5.5v1.5
	h-2v4h2v8H7c-0.248-0.003-1.5-0.089-1.5-1.5V7C5.503,6.752,5.588,5.5,7,5.5h18c0.248,0.003,1.5,0.088,1.5,1.5v18
	c-0.003,0.248-0.089,1.5-1.5,1.5H19.5z"/>
<g>
	<path fill="#4D5152" d="M24.992,6C25.453,6.013,26,6.197,26,7v17.988C25.988,25.45,25.806,26,25,26h-5v-7h2h0.721l0.228-0.684l1-3
		L24.388,14H23h-3l-0.001-1.972C20,12.02,20.001,12.01,20.004,12H23h1v-1V8V7h-1h-4c-5,0-5,3.05-5,6v1h-1h-1v1v3v1h1h1v7H7.012
		C6.55,25.988,6,25.806,6,25V7.012C6.012,6.55,6.195,6,7,6H24.992 M25,5H7C5,5,5,7,5,7v18c0,2,2,2,2,2h8v-9h-2v-3h2v-2c0-3,0-5,4-5
		h4v3c0,0-2.36,0-3,0c-1,0-1,1-1,1v3h4l-1,3h-3c0,0.01,0,9,0,9h6c2,0,2-2,2-2V7C27,5,25,5,25,5L25,5z"/>
</g>
</svg>
