<?xml version="1.0" encoding="utf-8"?>
<!-- Generator: Adobe Illustrator 16.0.0, SVG Export Plug-In . SVG Version: 6.00 Build 0)  -->
<!DOCTYPE svg PUBLIC "-//W3C//DTD SVG 1.1//EN" "http://www.w3.org/Graphics/SVG/1.1/DTD/svg11.dtd">
<svg version="1.1" id="Layer_1" xmlns="http://www.w3.org/2000/svg" xmlns:xlink="http://www.w3.org/1999/xlink" x="0px" y="0px"
	 width="32px" height="32px" viewBox="0 0 32 32" enable-background="new 0 0 32 32" xml:space="preserve">
<path fill="#67DDE0" d="M2.978,24.386c0.011,0.011,0.027,0.03,0.051,0.052c1.474,1.357,5.365,2.067,8.447,2.067
	c10.026,0,16.018-8.038,16.018-15.81c0-0.153-0.002-0.305-0.007-0.458c-0.005-0.162,0.069-0.316,0.198-0.414
	c1.003-0.759,1.658-1.677,2.35-2.711l-0.041,0.009c-0.391,0.172-0.794,0.321-1.197,0.444c-0.209,0.064-0.439-0.018-0.563-0.203
	c-0.122-0.185-0.108-0.427,0.033-0.597c0.458-0.547,0.801-1.167,1.02-1.845l-0.05,0.014c-0.972,0.573-1.857,1.006-2.99,1.257
	c-0.165,0.035-0.336-0.012-0.456-0.129c-1.03-0.997-2.441-1.568-3.873-1.568c-3.046,0-5.432,2.44-5.432,5.556
	c0,0.223,0.013,0.444,0.039,0.664c0.019,0.15-0.032,0.3-0.138,0.408c-0.106,0.108-0.257,0.162-0.404,0.149
	c-4.615-0.425-9.216-2.686-11.723-5.76C3.769,6.355,3.509,7.321,3.509,8.305c0,1.193,0.461,2.427,1.299,3.475
	c0.141,0.176,0.146,0.425,0.013,0.607c-0.133,0.183-0.373,0.253-0.583,0.171c-0.069-0.027-0.148-0.05-0.229-0.074
	c-0.153-0.046-0.324-0.097-0.482-0.174l-0.046-0.012c-0.011,1.898,1.012,3.697,2.657,4.762c0.199,0.129,0.28,0.38,0.194,0.601
	c-0.086,0.221-0.316,0.354-0.548,0.313l-0.235-0.039c0.604,1.921,2.201,3.104,4.607,3.416c0.206,0.027,0.375,0.179,0.422,0.381
	c0.047,0.202-0.035,0.413-0.207,0.529c-1.304,0.88-3.168,1.925-6.039,2.199c-0.406,0.037-0.82-0.008-1.224-0.059L2.978,24.386z"/>
<path fill="#4D5152" d="M30.425,6.779C30.327,6.663,30.186,6.6,30.042,6.6l-0.203,0.043c-0.387,0.172-0.784,0.321-1.188,0.444
	c0.498-0.595,0.88-1.285,1.119-2.034c0.063-0.197-0.002-0.414-0.164-0.543c-0.091-0.072-0.201-0.109-0.313-0.109l-0.254,0.07
	c-0.97,0.575-1.807,0.99-2.901,1.233c-1.125-1.089-2.647-1.709-4.221-1.709c-3.34,0-5.931,2.717-5.931,6.056
	c0,0.243,0.014,0.484,0.042,0.723C11.954,10.399,7.25,8.389,4.647,5.196C4.553,5.079,4.412,5.011,4.261,5.011L4.222,5.013
	C4.058,5.026,3.912,5.118,3.829,5.26c-0.537,0.921-0.82,1.974-0.82,3.045c0,1.398,0.561,2.727,1.409,3.787
	c-0.215-0.083-0.509-0.139-0.712-0.252l-0.226-0.058c-0.092,0-0.185,0.026-0.267,0.074c-0.152,0.088-0.247,0.262-0.25,0.438v0.052
	c0,2.102,1.216,4.042,2.902,5.134l-0.235-0.039l-0.093-0.009c-0.142,0-0.279,0.06-0.375,0.168c-0.117,0.132-0.156,0.316-0.102,0.484
	c0.651,2.033,2.327,3.41,5.03,3.762c-1.418,0.957-3.191,1.865-5.806,2.115c-0.421,0.04-0.849-0.025-1.266-0.075l-0.063-0.004
	c-0.207,0-0.395,0.134-0.467,0.332c-0.078,0.22,0.03,0.432,0.201,0.59c1.626,1.497,5.665,2.2,8.787,2.2
	c10.209,0,16.518-8.293,16.518-16.31c0-0.158-0.002-0.315-0.007-0.473c1.046-0.792,1.738-1.747,2.471-2.843
	C30.581,7.193,30.567,6.949,30.425,6.779 M27.185,9.571C27.048,9.67,26.97,9.832,26.978,10c0.011,0.23,0.016,0.462,0.016,0.695
	c0,7.525-5.935,15.31-15.518,15.31c-1.251,0-4.707-0.118-6.414-1.127c2.375-0.142,4.545-1.111,6.681-2.964
	c0.16-0.139,0.233-0.352,0.166-0.552c-0.067-0.201-0.253-0.338-0.465-0.342c-1.892-0.035-4.289-0.847-5.125-2.494l0.265,0.006
	c0.541,0,1.077-0.072,1.593-0.212c0.223-0.061,0.376-0.268,0.368-0.499c-0.008-0.232-0.174-0.428-0.401-0.474
	c-2.106-0.424-3.82-2.185-4.127-4.264c0.622,0.235,1.366,0.326,2.031,0.347h0.01c0.213,0,0.415-0.137,0.482-0.347
	c0.068-0.212-0.013-0.445-0.198-0.569C4.933,11.574,4.009,10,4.009,8.305c0-0.651,0.125-1.294,0.365-1.891
	c2.896,3.227,7.852,5.185,12.19,5.403h0.02c0.152,0,0.293-0.063,0.389-0.179c0.101-0.121,0.14-0.281,0.104-0.434
	c-0.087-0.372-0.09-0.76-0.09-1.153c0-2.788,2.144-5.056,4.932-5.056c1.394,0,2.738,0.582,3.691,1.597
	c0.097,0.102,0.229,0.157,0.366,0.157l0.095-0.009c0.808-0.159,1.384-0.401,2.137-0.725c-0.413,0.618-0.754,1.142-1.405,1.532
	c-0.202,0.121-0.292,0.367-0.216,0.59c0.07,0.205,0.266,0.338,0.474,0.338l0.06-0.003c0.567-0.068,0.918-0.176,1.466-0.325
	C28.099,8.674,27.77,9.149,27.185,9.571"/>
</svg>
