<?xml version="1.0" encoding="utf-8"?>
<!-- Generator: Adobe Illustrator 16.0.0, SVG Export Plug-In . SVG Version: 6.00 Build 0)  -->
<!DOCTYPE svg PUBLIC "-//W3C//DTD SVG 1.1//EN" "http://www.w3.org/Graphics/SVG/1.1/DTD/svg11.dtd">
<svg version="1.1" id="Layer_1" xmlns="http://www.w3.org/2000/svg" xmlns:xlink="http://www.w3.org/1999/xlink" x="0px" y="0px"
	 width="32px" height="32px" viewBox="0 0 32 32" enable-background="new 0 0 32 32" xml:space="preserve">
<path fill="#EF6565" d="M15.997,25.5c-3.474,0-6.81-0.274-9.647-0.794c-1.14-0.209-2.021-1.061-2.192-2.119
	c-0.86-5.294-0.86-7.88,0-13.174C4.329,8.354,5.21,7.502,6.35,7.293C9.187,6.774,12.523,6.5,15.997,6.5
	c3.474,0,6.81,0.274,9.647,0.793c1.14,0.208,2.021,1.06,2.192,2.119c0.859,5.294,0.859,7.88,0,13.174
	c-0.172,1.059-1.053,1.911-2.192,2.119C22.807,25.226,19.471,25.5,15.997,25.5z"/>
<polygon fill="#FFFFFF" points="13.5,20.099 20.065,16 13.5,11.901 "/>
<path fill="#4D5152" d="M28.329,9.333c-0.215-1.327-1.306-2.295-2.596-2.531c-5.842-1.069-13.631-1.069-19.474,0
	C4.97,7.038,3.878,8.011,3.664,9.333c-0.866,5.334-0.866,8,0,13.334c0.214,1.322,1.306,2.295,2.596,2.531
	c5.842,1.069,13.632,1.069,19.474,0c1.29-0.236,2.382-1.209,2.596-2.531C29.195,17.333,29.195,14.667,28.329,9.333z M27.346,22.507
	c-0.138,0.851-0.857,1.537-1.789,1.707C22.749,24.729,19.444,25,16,25c-3.444,0-6.749-0.271-9.556-0.786
	c-0.932-0.17-1.652-0.856-1.79-1.707c-0.848-5.23-0.848-7.783,0-13.014c0.138-0.85,0.858-1.537,1.79-1.708
	C9.252,7.271,12.556,7,16,7c3.444,0,6.749,0.272,9.557,0.785c0.933,0.171,1.651,0.858,1.789,1.708
	C28.194,14.724,28.194,17.276,27.346,22.507 M12.996,21l8.01-5l-8.01-5V21z M14,12.803L19.121,16L14,19.197V12.803z"/>
</svg>
